<svg id="svg" xmlns="http://www.w3.org/2000/svg" xmlns:xlink="http://www.w3.org/1999/xlink" width="400" height="110.85542771385693" viewBox="0, 0, 400,110.85542771385693"><g id="svgg"><path id="path0" d="M169.885 16.114 C 168.427 16.566,167.680 17.470,165.108 21.895 C 164.716 22.570,161.722 27.568,161.083 28.614 C 160.983 28.779,158.859 32.381,156.364 36.618 C 153.869 40.855,151.717 44.457,151.582 44.622 C 150.890 45.468,151.334 45.866,152.726 45.647 C 152.809 45.633,152.890 46.366,152.907 47.274 C 152.924 48.182,152.958 49.015,152.984 49.125 C 153.009 49.235,153.041 49.517,153.053 49.751 C 153.073 50.110,153.276 49.983,154.330 48.951 C 159.362 44.027,168.396 44.134,174.646 49.192 C 179.042 52.750,181.677 62.003,180.125 68.434 C 179.978 69.040,179.817 69.751,179.765 70.016 C 177.639 80.889,162.549 85.971,154.504 78.523 L 153.077 77.201 153.044 81.772 C 153.026 84.286,152.992 86.793,152.967 87.344 C 152.943 87.894,152.913 89.762,152.900 91.496 L 152.876 94.647 147.174 94.647 L 141.471 94.647 141.470 91.896 C 141.469 88.439,141.225 62.341,141.194 62.302 C 141.181 62.287,138.878 66.159,136.075 70.907 C 133.273 75.655,130.909 79.570,130.823 79.606 C 130.736 79.643,130.665 79.758,130.665 79.862 C 130.665 80.005,127.693 85.115,126.255 87.444 C 123.415 92.041,122.771 93.573,123.346 94.359 C 123.626 94.743,125.045 94.748,237.733 94.799 L 351.837 94.850 352.657 94.367 C 353.916 93.626,354.075 93.398,358.299 86.243 C 360.476 82.556,362.330 79.510,362.419 79.473 C 362.508 79.436,362.581 79.319,362.581 79.212 C 362.581 78.949,371.218 64.350,371.424 64.265 C 371.513 64.229,371.586 64.111,371.586 64.004 C 371.586 63.741,380.223 49.142,380.428 49.058 C 380.517 49.021,380.590 48.907,380.590 48.804 C 380.590 48.701,383.449 43.800,386.943 37.914 C 390.438 32.027,393.388 27.054,393.499 26.862 C 393.611 26.670,394.042 25.928,394.458 25.213 C 394.874 24.497,395.297 23.777,395.398 23.612 C 398.911 17.896,399.114 17.388,398.324 16.308 C 397.939 15.781,171.579 15.589,169.885 16.114 M45.018 41.271 L 45.013 50.325 44.091 49.358 C 37.483 42.431,24.342 44.686,19.783 53.529 C 16.243 60.398,16.884 70.161,21.255 75.932 C 26.603 82.993,37.747 84.242,43.671 78.446 L 45.023 77.123 45.023 79.382 L 45.023 81.641 50.825 81.641 L 56.628 81.641 56.628 56.928 L 56.628 32.216 50.825 32.216 L 45.023 32.216 45.018 41.271 M334.367 42.321 L 334.367 47.224 339.070 47.224 L 343.772 47.224 343.772 51.126 L 343.772 55.028 339.082 55.028 L 334.393 55.028 334.330 55.678 C 334.078 58.290,334.490 70.781,334.852 71.510 C 335.557 72.931,337.523 73.230,340.313 72.339 C 341.170 72.065,341.932 71.840,342.007 71.838 C 342.137 71.836,342.410 72.672,343.050 75.038 C 343.213 75.643,343.574 76.944,343.852 77.930 C 344.130 78.915,344.338 79.738,344.315 79.757 C 343.413 80.501,339.454 81.782,337.428 81.985 C 329.832 82.746,324.898 80.083,323.253 74.337 C 322.925 73.192,322.745 66.916,322.759 57.079 L 322.761 55.028 320.260 55.028 L 317.759 55.028 317.759 51.226 L 317.759 47.424 320.260 47.424 L 322.761 47.424 322.761 42.421 L 322.761 37.419 328.564 37.419 L 334.367 37.419 334.367 42.321 M203.180 45.525 C 209.620 46.648,213.636 50.301,214.491 55.814 C 214.628 56.696,214.707 61.676,214.707 69.423 L 214.707 81.641 209.105 81.641 L 203.502 81.641 203.502 79.608 L 203.502 77.575 202.215 78.811 C 197.247 83.582,187.000 83.307,182.710 78.288 C 179.057 74.015,179.357 66.907,183.341 63.325 C 186.172 60.780,189.551 60.034,198.264 60.032 L 203.331 60.030 203.285 58.879 C 203.079 53.645,195.872 52.322,187.578 55.997 C 186.596 56.432,185.731 56.729,185.655 56.658 C 185.381 56.401,182.477 49.410,182.577 49.248 C 182.803 48.881,188.112 46.938,190.598 46.312 C 194.986 45.206,199.674 44.913,203.180 45.525 M242.321 50.362 L 242.321 55.501 243.372 53.738 C 246.714 48.130,251.895 45.515,259.630 45.532 C 271.187 45.557,277.510 52.026,277.614 63.932 L 277.639 66.733 266.233 66.779 C 259.960 66.805,254.300 66.827,253.655 66.829 L 252.483 66.833 252.614 67.384 C 254.090 73.569,262.268 75.405,268.165 70.876 L 269.497 69.853 272.545 72.791 L 275.593 75.729 274.316 76.904 C 266.317 84.261,251.500 83.709,244.810 75.805 C 240.748 71.006,239.581 62.097,242.213 55.978 C 242.376 55.601,242.006 55.552,239.553 55.626 C 236.638 55.714,233.502 57.285,232.046 59.386 C 230.741 61.269,230.726 61.416,230.710 72.018 L 230.695 81.641 224.901 81.641 L 219.107 81.641 219.159 63.682 L 219.210 45.723 224.912 45.723 L 230.615 45.723 230.671 48.713 L 230.727 51.704 231.394 50.713 C 233.495 47.594,237.686 45.293,241.371 45.237 L 242.321 45.223 242.321 50.362 M308.354 45.910 C 311.352 46.945,313.933 49.260,315.285 52.126 C 316.681 55.086,316.636 54.562,316.710 68.784 L 316.777 81.641 311.065 81.641 L 305.353 81.641 305.346 71.986 C 305.338 59.281,305.282 58.901,303.089 56.897 C 299.954 54.032,294.391 55.421,292.543 59.530 C 291.754 61.284,291.762 61.162,291.736 71.826 L 291.713 81.641 285.927 81.641 L 280.140 81.641 280.140 63.652 L 280.140 45.664 285.891 45.694 L 291.641 45.725 291.668 47.124 C 291.682 47.894,291.711 49.155,291.731 49.925 L 291.768 51.326 292.205 50.725 C 294.198 47.988,297.502 45.955,300.645 45.533 C 301.193 45.459,301.688 45.349,301.746 45.288 C 302.058 44.956,306.916 45.413,308.354 45.910 M75.038 45.474 C 74.982 45.529,74.485 45.621,73.932 45.679 C 63.591 46.751,57.432 57.475,60.104 69.756 C 60.593 72.001,62.868 75.578,65.047 77.528 C 72.222 83.946,86.447 83.472,93.197 76.590 L 94.047 75.722 91.059 72.757 L 88.071 69.791 86.943 70.710 C 82.784 74.098,76.925 74.348,73.611 71.279 C 72.519 70.269,71.036 67.865,71.036 67.107 C 71.036 66.879,73.121 66.833,83.642 66.833 L 96.248 66.833 96.248 64.877 C 96.248 54.823,91.896 48.153,83.942 46.016 C 82.422 45.608,75.335 45.176,75.038 45.474 M93.847 45.926 C 93.847 46.061,101.220 65.749,101.576 66.564 C 101.727 66.910,101.851 67.294,101.851 67.417 C 101.851 67.539,101.942 67.796,102.053 67.987 C 102.164 68.178,103.373 71.306,104.739 74.937 L 107.222 81.541 113.161 81.541 L 119.099 81.541 119.877 79.440 C 120.305 78.284,120.746 77.182,120.857 76.991 C 120.969 76.800,121.061 76.544,121.061 76.421 C 121.061 76.299,121.185 75.915,121.336 75.568 C 121.488 75.221,122.670 72.101,123.963 68.634 C 125.257 65.168,126.427 62.061,126.564 61.731 C 126.702 61.401,127.737 58.654,128.865 55.628 C 129.993 52.601,131.030 49.855,131.169 49.525 C 131.474 48.800,132.466 46.036,132.466 45.912 C 132.466 45.863,129.909 45.823,126.784 45.823 L 121.103 45.823 120.489 47.774 C 120.151 48.847,119.014 52.561,117.962 56.028 C 116.910 59.495,115.884 62.826,115.681 63.432 C 115.479 64.037,114.879 65.994,114.348 67.780 C 113.817 69.567,113.355 71.001,113.322 70.967 C 113.288 70.934,112.581 68.662,111.750 65.918 C 110.919 63.175,109.928 59.917,109.549 58.679 C 107.962 53.503,107.443 51.803,106.755 49.525 C 106.356 48.204,105.938 46.831,105.826 46.473 L 105.622 45.823 99.734 45.823 C 96.496 45.823,93.847 45.869,93.847 45.926 M81.270 53.968 C 83.249 54.859,84.779 57.110,84.990 59.441 L 85.098 60.630 77.941 60.630 L 70.784 60.630 70.920 59.780 C 71.687 54.977,76.950 52.023,81.270 53.968 M256.989 53.836 C 254.907 54.659,253.342 56.560,252.517 59.268 C 252.064 60.755,251.426 60.630,259.463 60.630 L 266.533 60.630 266.531 59.980 C 266.514 55.313,261.469 52.065,256.989 53.836 M158.979 54.352 C 151.895 56.171,150.774 68.799,157.406 72.064 C 162.914 74.776,168.445 70.931,168.825 64.128 C 169.188 57.634,164.464 52.943,158.979 54.352 M39.869 54.963 C 43.111 56.230,45.008 59.504,45.008 63.832 C 45.008 75.747,30.176 76.660,29.102 64.812 C 28.467 57.798,34.052 52.689,39.869 54.963 M194.351 66.444 C 188.777 67.544,190.241 74.399,196.057 74.432 C 200.221 74.456,203.302 71.761,203.302 68.093 L 203.302 66.233 199.250 66.255 C 197.021 66.267,194.816 66.352,194.351 66.444 " stroke="none" fill="currentColor" fill-rule="evenodd"></path></g></svg>