<svg xmlns="http://www.w3.org/2000/svg" xmlns:xlink="http://www.w3.org/1999/xlink" width="500" zoomAndPan="magnify" viewBox="0 0 375 374.999991" height="500" preserveAspectRatio="xMidYMid meet" version="1.0"><defs><clipPath id="71e4868513"><path d="M 5 21.898438 L 371 21.898438 L 371 337.5 L 5 337.5 Z M 5 21.898438 " clip-rule="nonzero"/></clipPath><clipPath id="692ca278e1"><path d="M 198.605469 21.898438 L 364.5 21.898438 C 366.648438 21.898438 368.636719 23.054688 369.699219 24.921875 C 370.765625 26.789062 370.746094 29.085938 369.648438 30.933594 L 193.457031 328.464844 C 190.140625 334.066406 184.113281 337.5 177.605469 337.5 L 11.710938 337.5 C 9.5625 337.5 7.578125 336.347656 6.511719 334.480469 C 5.449219 332.609375 5.46875 330.316406 6.5625 328.464844 L 182.757812 30.933594 C 186.074219 25.335938 192.097656 21.898438 198.605469 21.898438 Z M 198.605469 21.898438 " clip-rule="nonzero"/></clipPath></defs><rect x="-37.5" width="450" fill="#ffffff" y="-37.499999" height="449.999989" fill-opacity="1"/><rect x="-37.5" width="450" fill="#f5eee2" y="-37.499999" height="449.999989" fill-opacity="1"/><g clip-path="url(#71e4868513)"><g clip-path="url(#692ca278e1)"><path fill="#0f2b53" d="M 1.210938 21.898438 L 375 21.898438 L 375 337.5 L 1.210938 337.5 Z M 1.210938 21.898438 " fill-opacity="1" fill-rule="nonzero"/></g></g></svg>